<svg xmlns="http://www.w3.org/2000/svg" viewBox="0 0 175.75 406.95"><defs><style>.cls-1,.cls-2,.cls-3,.cls-4{fill:none;stroke:#fff;stroke-linecap:round;stroke-width:1.33px;}.cls-1{stroke-miterlimit:10;stroke-dasharray:130.36;}.cls-2,.cls-3,.cls-4{stroke-miterlimit:1.33;}.cls-2{stroke-dasharray:78.92;}.cls-3{stroke-dasharray:136.14;}.cls-4{stroke-dashoffset:66.27px;stroke-dasharray:237.39;}</style></defs><title>Asset 1</title><g id="Layer_2" data-name="Layer 2"><g id="tracesvg"><path id="p1" class="cls-1" d="M154.69.67c18.37-.19,28.74,22.59,11.86,39.74C144.74,62.58,117.87,54.51,88.39,67c-21.53,9.1-33.29,26-30.91,40.2"/><path id="p2" class="cls-2" d="M67.24,125.06c21.93,22.71,66.2-2.1,75.78,28.61,3.65,11.69.07,24.27-2,29.83"/><path id="p3" class="cls-3" d="M130.19,213.71c-6.52,16.87-8.17,40.64,3.11,49a16.26,16.26,0,0,0,25.47-9c3.11-11.79-4.47-22.17-17.11-22.37-16.49-.27-24.33,18-27,30.16-3.09,14,2.82,27.89,11.11,38.59"/><path id="p4" class="cls-4" d="M143,324.7c6.83,9.37,9.43,20.27-.78,28.26s-22.53,3.45-32.26-2.72C99.53,343.65,66.69,321.36,41,320c-12.7-.68-25.85,3.13-33.75,14.06a36.81,36.81,0,0,0-4.44,33.48c4.38,12,14.87,19,26.79,21.2,15.88,2.94,25.34-6,41.53-8.53,21.9-3.39,38,10.95,43.05,26.09"/></g></g></svg>